<?xml version="1.0" encoding="utf-8"?>
<!-- Generator: Adobe Illustrator 24.0.2, SVG Export Plug-In . SVG Version: 6.00 Build 0)  -->
<svg version="1.1" id="Layer_1" xmlns="http://www.w3.org/2000/svg" xmlns:xlink="http://www.w3.org/1999/xlink" x="0px" y="0px"
	 viewBox="0 0 205.9 40" style="enable-background:new 0 0 205.9 40;" xml:space="preserve">
<style type="text/css">
	.st0{fill:#4BA4F9;}
	.st1{fill:#1A8AF7;}
	.st2{fill:#0657A5;}
	.st3{fill:#939393;}
	.st4{fill:#B0B0B0;}
	.st5{fill:#747474;}
</style>
<g>
	<g>
		<g>
			<g>
				<g>
					<path class="st0" d="M17.1,0.3c-0.8,0-4.1,0-4.9,0C5.5,0.3,0,5.8,0,12.6s5.5,12.2,12.2,12.2c0.8,0,4.1,0,4.9,0
						c6.8,0,12.2-5.5,12.2-12.2S23.9,0.3,17.1,0.3z M17.3,20.8c-0.9,0-4.2,0-5.1,0c-4.5,0-8.2-3.7-8.2-8.2s3.7-8.2,8.2-8.2
						c0.9,0,4.2,0,5.1,0c4.5,0,8.2,3.7,8.2,8.2S21.8,20.8,17.3,20.8z"/>
				</g>
				<path class="st1" d="M18.7,6.3c-1.5,0-3,0.6-4,1.5c-1.3,1.1-2.2,2.9-2.2,4.8l0,0l0,0c0,2.7-1.7,5-4,5.8
					c-0.7,0.3-1.4,0.4-2.2,0.4h4.4c1.5,0,3-0.6,4-1.5c1.3-1.1,2.2-2.9,2.2-4.8v0v0c0-2.7,1.7-5,4-5.8c0.7-0.3,1.4-0.4,2.2-0.4H18.7z
					"/>
				<path class="st2" d="M23.1,6.3c-0.2,0-0.4,0-0.5,0C23.5,7.1,24.2,8,24.7,9c0.3-0.1,0.7-0.1,1-0.1c2,0,3.7,1.6,3.7,3.7v0
					C29.4,9.1,26.6,6.3,23.1,6.3z"/>
				<path class="st2" d="M6.2,18.8c0.2,0,0.4,0,0.5,0c-0.9-0.7-1.6-1.7-2.1-2.7c-0.3,0.1-0.7,0.1-1,0.1c-2,0-3.7-1.6-3.7-3.7v0
					C0,16,2.8,18.8,6.2,18.8z"/>
				<path class="st1" d="M6.2,18.8C2.8,18.8,0,16,0,12.6c0,3.2,1.2,6.1,3.2,8.3l3.5-2.1C6.6,18.8,6.4,18.8,6.2,18.8z"/>
				<path class="st1" d="M25.7,8.9c-0.4,0-0.7,0.1-1,0.1l0,0c0.5,1.1,0.8,2.3,0.8,3.5c0,4.5-3.7,8.2-8.2,8.2c-0.9,0-4.2,0-5.1,0
					c-2,0-3.9-0.7-5.3-2c0,0,0,0,0,0h0l-3.5,2.1c2.2,2.4,5.4,4,9,4c0.8,0,4.1,0,4.9,0c6.8,0,12.2-5.5,12.2-12.2
					C29.4,10.5,27.7,8.9,25.7,8.9z"/>
				<path class="st1" d="M127.3,24.8c1.3,0,2.4-1.1,2.4-2.4V2.1c0-0.9-0.7-1.6-1.6-1.6h-0.7c-0.9,0-1.6,0.7-1.6,1.6v16.3 M108.7,0.6
					c-1.3,0-2.4,1.1-2.4,2.4v17.9h-4.9V3c0-1.4-1.1-2.4-2.4-2.4H81.7C75,0.6,69.5,6,69.5,12.7c0,3.2,1.2,6,3.2,8.2h-7.9V2.1
					c0-0.9-0.7-1.6-1.6-1.6h-0.7c-0.9,0-1.6,0.7-1.6,1.6v18.7h-4.7L51.6,16c2.8-1.3,4.7-4.1,4.7-7.3c0-4.5-3.6-8.1-8.1-8.1h-13
					c-1.4,0-2.4,1.1-2.4,2.4v17.9H17.1v3.9l17.1,0c1.4,0,2.4-1.1,2.4-2.4v-5.6h10l7.1,7.3h0c0.4,0.5,1.1,0.7,1.7,0.7h34.5
					c1.4,0,2.4-1.1,2.4-2.4v-8.2c0-0.9-0.7-1.6-1.6-1.6h-0.7c-0.9,0-1.6,0.7-1.6,1.6v6.7l-7,0c-4.5,0-8.2-3.7-8.2-8.2
					s3.7-8.2,8.2-8.2h15.8v17.9c0,1.4,1.1,2.4,2.4,2.4h7.8c1.4,0,2.4-1.1,2.4-2.4V6.9 M48.2,12.8H36.7V4.5h11.5
					c2.3,0,4.2,1.9,4.2,4.2S50.5,12.8,48.2,12.8z"/>
				<g>
					<path class="st3" d="M1.4,38H10c1.3,0,2-0.4,2-1.3c0-0.4-0.2-0.7-0.5-1c-0.4-0.2-0.9-0.4-1.7-0.4L4.9,35
						c-1.1-0.1-2-0.3-2.5-0.8c-0.6-0.4-0.9-1.1-0.9-1.9c0-0.9,0.3-1.6,1-2C3.1,29.9,4,29.7,5,29.7h7.9v1.4H4.9
						c-1.2,0-1.8,0.4-1.8,1.2c0,0.4,0.2,0.7,0.5,0.9c0.3,0.2,0.9,0.3,1.7,0.4l4.6,0.4c1.2,0.1,2.1,0.4,2.7,0.8
						c0.6,0.4,0.9,1.1,0.9,2c0,0.9-0.3,1.5-0.9,2c-0.6,0.5-1.5,0.7-2.8,0.7H1.4V38z"/>
					<path class="st3" d="M20.6,29.8c0.8-0.2,1.8-0.2,3-0.2c1.2,0,2.1,0.1,3,0.2c0.8,0.2,1.5,0.4,2.1,0.8c0.6,0.4,1,0.9,1.3,1.5
						c0.3,0.7,0.4,1.5,0.4,2.4c0,1-0.1,1.8-0.4,2.4c-0.3,0.7-0.7,1.2-1.3,1.5c-0.6,0.4-1.3,0.6-2.1,0.8c-0.8,0.2-1.8,0.2-3,0.2
						c-1.2,0-2.1-0.1-3-0.2c-0.8-0.2-1.5-0.4-2.1-0.8c-0.6-0.4-1-0.9-1.3-1.5c-0.3-0.7-0.4-1.5-0.4-2.4c0-1,0.1-1.8,0.4-2.4
						c0.3-0.7,0.7-1.2,1.3-1.5C19.1,30.2,19.8,30,20.6,29.8z M21.3,38c0.6,0.1,1.3,0.1,2.3,0.1c0.9,0,1.7,0,2.3-0.1
						c0.6-0.1,1.1-0.2,1.6-0.5c0.5-0.2,0.8-0.6,1-1.1c0.2-0.5,0.3-1.1,0.3-1.8c0-0.6-0.1-1.1-0.2-1.5c-0.1-0.4-0.4-0.8-0.6-1
						c-0.3-0.3-0.6-0.5-1.1-0.6c-0.4-0.1-0.9-0.2-1.4-0.3c-0.5,0-1.1-0.1-1.8-0.1c-0.7,0-1.3,0-1.8,0.1c-0.5,0-1,0.1-1.4,0.3
						c-0.4,0.1-0.8,0.3-1.1,0.6c-0.3,0.3-0.5,0.6-0.6,1c-0.1,0.4-0.2,0.9-0.2,1.5c0,0.8,0.1,1.4,0.3,1.8c0.2,0.5,0.5,0.8,1,1.1
						C20.2,37.7,20.7,37.9,21.3,38z"/>
					<path class="st3" d="M45.8,31.2h-6.5c-1.4,0-2.3,0.2-2.8,0.6c-0.5,0.4-0.8,1.1-0.8,2.2v0.4h9.7v1.4h-9.7v3.6h-1.6V34
						c0-1.6,0.4-2.7,1.2-3.4c0.8-0.6,2.1-1,4-1h6.5V31.2z"/>
					<path class="st3" d="M56.1,39.4h-1.6v-8.3h-5v-1.4h11.6v1.4h-5V39.4z"/>
					<path class="st3" d="M82.1,29.7h1.7l-3.5,8c-0.6,1.3-1.5,1.9-2.8,1.9c-1.3,0-2.2-0.6-2.7-1.8l-0.8-1.7L73,37.8
						c-0.6,1.2-1.5,1.8-2.7,1.8c-1.3,0-2.2-0.6-2.8-1.9l-3.5-8h1.7l3.3,7.4c0.2,0.4,0.4,0.7,0.6,0.8s0.5,0.2,0.8,0.2
						c0.6,0,1.1-0.3,1.4-0.9l1.4-2.8l-2.3-4.7h1.6l1.5,3.2l1.5-3.2H77l-2.3,4.7l1.4,2.8c0.2,0.3,0.3,0.6,0.6,0.7
						c0.2,0.1,0.5,0.2,0.8,0.2c0.3,0,0.6-0.1,0.8-0.2c0.2-0.1,0.4-0.4,0.6-0.8L82.1,29.7z"/>
					<path class="st3" d="M95.1,31.6l3.9,7.8h-1.7L96,36.8h-7.6L87,39.4h-1.7l3.9-7.8c0.3-0.7,0.7-1.2,1.2-1.5
						c0.4-0.3,1-0.5,1.7-0.5c0.7,0,1.3,0.2,1.7,0.5C94.3,30.4,94.7,30.9,95.1,31.6z M95.3,35.4l-1.7-3.5c-0.3-0.6-0.8-1-1.4-1
						c-0.6,0-1,0.3-1.4,1l-1.7,3.5H95.3z"/>
					<path class="st3" d="M102.2,39.4v-9.7h8.4c1.2,0,2.1,0.3,2.7,0.8c0.6,0.5,1,1.3,1,2.2c0,0.7-0.2,1.2-0.5,1.7
						c-0.4,0.4-0.9,0.8-1.5,0.9c1.2,0.4,1.9,1.1,1.9,2.3v1.9h-1.6v-1.9c0-0.4-0.2-0.8-0.5-1.1c-0.3-0.3-0.8-0.4-1.4-0.4h-6.8v3.4
						H102.2z M103.7,34.6h7c0.7,0,1.2-0.2,1.5-0.5c0.3-0.4,0.5-0.8,0.5-1.2c0-0.5-0.2-0.9-0.5-1.2c-0.3-0.3-0.8-0.5-1.5-0.5h-7V34.6
						z"/>
					<path class="st3" d="M129.8,31.2h-7.7c-1,0-1.8,0.2-2.3,0.6c-0.5,0.4-0.7,1.1-0.8,2h10.5v1.4H119c0.1,0.9,0.3,1.6,0.8,2
						c0.5,0.4,1.2,0.6,2.3,0.6h7.7v1.5h-7.7c-1.7,0-2.8-0.4-3.6-1.2c-0.7-0.8-1.1-2-1.1-3.7c0-1.7,0.4-2.9,1.1-3.7
						c0.7-0.8,1.9-1.2,3.6-1.2h7.7V31.2z"/>
				</g>
				<polygon class="st1" points="110.7,1.5 106.3,3 125.4,23.8 129.8,22.3 				"/>
				<circle class="st1" cx="108.7" cy="3" r="2.4"/>
				<circle class="st1" cx="127.3" cy="22.3" r="2.4"/>
			</g>
			<g>
				<path class="st3" d="M139.5,40c-0.3,0-0.6-0.2-0.6-0.6V0.6c0-0.3,0.2-0.6,0.6-0.6c0.3,0,0.6,0.2,0.6,0.6v38.9
					C140.1,39.8,139.8,40,139.5,40z"/>
			</g>
		</g>
		<g>
			<g>
				<path class="st1" d="M150.4,31.6h2l2.8,3.1c0,0,0.1,0.1,0.2,0.2c0.1,0.1,0.2,0.2,0.2,0.3c0,0.1,0.1,0.1,0.2,0.2
					c0.1,0.1,0.1,0.2,0.2,0.3c0.1,0.1,0.1,0.2,0.2,0.3c0.1-0.3,0.4-0.7,0.9-1.2l2.8-3.1h2l-4,4.2c0,0,0,0-0.1,0.1
					c-0.1,0.1-0.1,0.1-0.1,0.1c0,0-0.1,0.1-0.1,0.1c-0.1,0.1-0.1,0.1-0.1,0.2c0,0-0.1,0.1-0.1,0.2c-0.1,0.1-0.1,0.1-0.1,0.2
					c0,0-0.1,0.1-0.1,0.2c0,0.1-0.1,0.1-0.1,0.2c0,0.1,0,0.1,0,0.2c0,0.1,0,0.1,0,0.2V40h-1.3v-2.5c0-0.4-0.3-0.9-1-1.6L150.4,31.6z
					"/>
				<path class="st1" d="M171.6,32.9H165c-0.9,0-1.5,0.2-1.9,0.6c-0.4,0.4-0.6,1-0.7,1.7h9v1.2h-9c0,0.8,0.3,1.4,0.7,1.7
					c0.4,0.4,1,0.5,1.9,0.5h6.6V40H165c-1.4,0-2.4-0.3-3.1-1c-0.6-0.7-0.9-1.7-0.9-3.2c0-1.4,0.3-2.5,0.9-3.2c0.6-0.7,1.6-1,3.1-1
					h6.6V32.9z"/>
				<path class="st1" d="M180.3,33.3l3.4,6.7h-1.4l-1.1-2.3h-6.5l-1.1,2.3H172l3.4-6.7c0.3-0.6,0.6-1,1-1.3c0.4-0.3,0.9-0.4,1.5-0.4
					c0.6,0,1.1,0.1,1.5,0.4C179.7,32.3,180,32.7,180.3,33.3z M180.5,36.5l-1.5-3c-0.3-0.6-0.7-0.8-1.2-0.8c-0.5,0-0.9,0.3-1.2,0.8
					l-1.5,3H180.5z"/>
				<path class="st1" d="M184.4,40v-8.4h7.2c1,0,1.8,0.2,2.3,0.7c0.5,0.5,0.8,1.1,0.8,1.9c0,0.6-0.2,1.1-0.5,1.5
					c-0.3,0.4-0.8,0.6-1.3,0.8c1.1,0.3,1.6,1,1.6,2V40h-1.4v-1.6c0-0.4-0.1-0.7-0.4-0.9c-0.3-0.3-0.7-0.4-1.2-0.4h-5.8V40H184.4z
					 M185.7,35.9h6c0.6,0,1-0.2,1.3-0.5c0.3-0.3,0.4-0.7,0.4-1.1c0-0.4-0.1-0.8-0.4-1.1c-0.3-0.3-0.7-0.4-1.3-0.4h-6V35.9z"/>
				<path class="st1" d="M195.5,38.8h7.4c1.1,0,1.7-0.4,1.7-1.1c0-0.4-0.2-0.6-0.5-0.8c-0.3-0.2-0.8-0.3-1.5-0.4l-4.1-0.3
					c-1-0.1-1.7-0.3-2.2-0.7c-0.5-0.4-0.7-0.9-0.7-1.6c0-0.8,0.3-1.3,0.8-1.7c0.5-0.4,1.3-0.5,2.2-0.5h6.8v1.2h-6.9
					c-1,0-1.5,0.3-1.5,1c0,0.3,0.1,0.6,0.4,0.8c0.3,0.2,0.8,0.3,1.5,0.3l3.9,0.3c1,0.1,1.8,0.3,2.4,0.7c0.5,0.4,0.8,0.9,0.8,1.7
					c0,0.7-0.3,1.3-0.8,1.7c-0.5,0.4-1.3,0.6-2.4,0.6h-7.3V38.8z"/>
			</g>
		</g>
	</g>
	<path class="st4" d="M171.5,0.8h-16c-1.3,0-2.5,0.5-3.4,1.4c-0.9,0.9-1.4,2.1-1.4,3.4V6c0,1.1,0.9,2,2,2h0.3c1.1,0,2-0.9,2-2v0
		c0-0.6,0.1-0.7,0.2-0.9c0.1-0.1,0.5-0.2,1.1-0.2h14.5c0.3,0,0.6,0,0.7,0.1l0,0V0.8z"/>
	<path class="st3" d="M172.1,6.3v4.3c0,0.6-0.1,1-0.2,1.1c-0.1,0.1-0.5,0.2-1.1,0.2h-15.2c-1.3,0-2.5,0.5-3.4,1.4
		c-0.9,0.9-1.4,2-1.4,3.4v9.8h23.4c1.2,0,2.1-1,2.1-2.1v0c0-1.2-1-2.1-2.1-2.1h-17.9c-0.6,0-1-0.1-1.1-0.2c-0.1-0.1-0.2-0.5-0.2-1.1
		v-3.5c0-0.6,0.1-1,0.2-1.1c0.1-0.1,0.5-0.2,1.1-0.2h15.2c1.3,0,2.5-0.5,3.4-1.4c0.9-0.9,1.4-2.1,1.4-3.4
		C175.5,6.4,172.1,6.3,172.1,6.3z"/>
	<path class="st5" d="M171.5,0.8v4.3l0,0c0.2,0,0.3,0.1,0.3,0.1c0.1,0.1,0.2,0.5,0.2,1.1c0,0,3.4,0.1,4.2,5.1V5.5
		c0-1.3-0.5-2.5-1.4-3.4C174,1.2,172.9,0.8,171.5,0.8z"/>
	<path class="st4" d="M201.1,22.1c-0.2,0-0.4,0.1-0.7,0.1h-14.5c-0.6,0-1-0.1-1.1-0.2c-0.1-0.1-0.2-0.1-0.2-0.7v0
		c0-1.1-0.9-2.1-2.1-2.1h-0.1c-1.1,0-2.1,0.9-2.1,2.1v0.4c0,1.3,0.5,2.4,1.4,3.4c0.9,0.9,2.1,1.4,3.4,1.4h16L201.1,22.1L201.1,22.1z
		"/>
	<path class="st3" d="M184.8,5.2c0.1-0.1,0.5-0.2,1.1-0.2h17.9c1.2,0,2.1-1,2.1-2.1v0c0-1.2-1-2.1-2.1-2.1h-23.4v14.7h20
		c0.6,0,1,0.1,1.1,0.2c0.1,0.1,0.2,0.5,0.2,1.1v4.2c0,0,3.4-0.1,4.2-5.1c0-1.3-0.5-2.4-1.4-3.3c-0.9-0.9-2.1-1.4-3.4-1.4h-15.2
		c-0.6,0-1-0.1-1.1-0.2c-0.1-0.1-0.2-0.5-0.2-1.1V6.3C184.6,5.7,184.7,5.3,184.8,5.2z"/>
	<path class="st3" d="M201.4,22C201.4,22,201.5,22,201.4,22C201.5,22,201.4,22,201.4,22z"/>
	<path class="st5" d="M205.9,15.8C205.9,15.8,205.9,15.8,205.9,15.8c0,0,0,0.1,0,0.1V15.8z"/>
	<path class="st5" d="M201.7,20.9c0,0.6-0.1,1-0.2,1.1c0,0,0,0-0.1,0c-0.1,0-0.2,0.1-0.3,0.1l0,0v4.3c1.3,0,2.5-0.5,3.4-1.4
		c0.9-0.9,1.4-2.1,1.4-3.4v-5.7c0,0,0-0.1,0-0.1C205.1,20.8,201.7,20.9,201.7,20.9z"/>
</g>
</svg>
